<svg id="nasb_dar_mahal_button" xmlns="http://www.w3.org/2000/svg" width="29" height="29" viewBox="0 0 29 29">
  <g id="Group_78" data-name="Group 78">
    <rect id="Rectangle_42" data-name="Rectangle 42" width="29" height="29" fill="none"/>
    <rect id="Rectangle_43" data-name="Rectangle 43" width="29" height="29" fill="none"/>
  </g>
  <g id="Group_80" data-name="Group 80" transform="translate(3.069 3.157)">
    <g id="Group_79" data-name="Group 79">
      <path id="Path_166" data-name="Path 166" d="M22.461,19.019,16.492,13.05,13.93,15.612,19.9,21.581a1.8,1.8,0,0,0,2.562,0A1.823,1.823,0,0,0,22.461,19.019Z" transform="translate(-0.167 -0.438)"/>
      <path id="Path_167" data-name="Path 167" d="M20.8,11.539A4.234,4.234,0,0,0,25.027,7.31a4.175,4.175,0,0,0-.5-1.933L21.269,8.639l-1.8-1.8,3.263-3.263a4.175,4.175,0,0,0-1.933-.5A4.234,4.234,0,0,0,16.569,7.31a4.121,4.121,0,0,0,.254,1.4l-2.235,2.235L12.436,8.8h0a1.2,1.2,0,0,0,0-1.7l-.858-.858L14.14,3.673a3.625,3.625,0,0,0-5.123,0L5.609,7.092a1.2,1.2,0,0,0,0,1.7l.858.858H3.4a.812.812,0,0,0-.6.254.846.846,0,0,0,0,1.208l3.069,3.069a.846.846,0,0,0,1.208,0,.86.86,0,0,0,.254-.6V10.512l.846.846a1.2,1.2,0,0,0,1.7,0l2.151,2.151L4.352,21.182a1.8,1.8,0,0,0,0,2.562h0a1.8,1.8,0,0,0,2.562,0l12.47-12.458A4.245,4.245,0,0,0,20.8,11.539Z" transform="translate(-2.54 -2.613)"/>
    </g>
  </g>
</svg>
