<svg xmlns="http://www.w3.org/2000/svg" width="21" height="20.701" viewBox="0 0 21 20.701">
  <path id="delivering" d="M20.505,18.725a1.266,1.266,0,0,0-1-.326c-.319.036-.69.1-1.093.176V8.545a1.24,1.24,0,0,0-1.238-1.238H15.2v-1.2a2.743,2.743,0,0,0-5.485,0v1.2H7.728A1.24,1.24,0,0,0,6.49,8.545V14.97A6.083,6.083,0,0,0,3.6,16.236a6.735,6.735,0,0,0-.724.713,1.089,1.089,0,0,0-.851-.41H.467A.467.467,0,0,0,0,17V23.6a.467.467,0,0,0,.467.467H2.02a1.092,1.092,0,0,0,1.09-1.09v-.359a33.964,33.964,0,0,1,3.746.562,30.459,30.459,0,0,0,5.567.662,16.812,16.812,0,0,0,2.481-.2,27.891,27.891,0,0,0,3.351-.807c.511-.145.994-.281,1.421-.389C20.828,22.155,21,21.429,21,21.022V19.833A1.506,1.506,0,0,0,20.505,18.725ZM10.644,6.108a1.809,1.809,0,0,1,3.618,0v1.2H10.644v-1.2ZM7.423,8.545a.305.305,0,0,1,.3-.3H9.711v1.03a.467.467,0,0,0,.934,0V8.241h3.618v1.03a.467.467,0,0,0,.934,0V8.241h1.983a.305.305,0,0,1,.3.3V18.716c0,.015,0,.03,0,.045l-.212.044a25.629,25.629,0,0,1-3.2.531,7.314,7.314,0,0,1-2.6-.372,1.231,1.231,0,0,1-.528-.489H12.68a1.3,1.3,0,0,0,1.3-1.3V16.152a1.3,1.3,0,0,0-1.3-1.3H7.914c-.049,0-.226-.005-.491.01V8.545ZM2.177,22.975a.157.157,0,0,1-.157.157H.934V17.472H2.02a.157.157,0,0,1,.157.157v5.347Zm17.889-1.953c0,.1,0,.362-.618.518-.44.111-.929.249-1.447.4a27.3,27.3,0,0,1-3.227.78c-1.837.259-3.368.367-7.745-.455a33.285,33.285,0,0,0-3.918-.58V18.216a.465.465,0,0,0,.045-.067,4.493,4.493,0,0,1,1.046-1.2,6.1,6.1,0,0,1,3.686-1.161H12.68a.368.368,0,0,1,.367.367v1.021a.368.368,0,0,1-.367.367H7.906a.467.467,0,1,0,0,.934H9.95a2.028,2.028,0,0,0,1.086,1.316,8.028,8.028,0,0,0,3.095.477,26.186,26.186,0,0,0,3.331-.549c.818-.169,1.59-.328,2.154-.392a.345.345,0,0,1,.268.095.567.567,0,0,1,.183.412v1.189Z" transform="translate(0 -3.365)"/>
</svg>
