<svg xmlns="http://www.w3.org/2000/svg" width="34.212" height="18.33" viewBox="0 0 34.212 18.33">
  <path id="car_good_for" d="M31.767,122.481l-2.692-1.229L26.7,117.461a3.743,3.743,0,0,0-3.193-1.758H13.384a3.776,3.776,0,0,0-3,1.476L7.313,121.2,2.2,122.6A3,3,0,0,0,0,125.489v1.957a3,3,0,0,0,2.973,3.022h.439a3.813,3.813,0,0,0,7.382,0H22.332a3.813,3.813,0,0,0,7.382,0h.824a3,3,0,0,0,2.973-3.022v-2.232A2.992,2.992,0,0,0,31.767,122.481Z" transform="translate(0.35 -115.353)" fill="none" stroke="#000" stroke-width="0.7"/>
</svg>
