<svg xmlns="http://www.w3.org/2000/svg" width="28" height="28" viewBox="0 0 28 28">
  <path id="fast_delivery" d="M14,28A14,14,0,0,1,4.1,4.1,14,14,0,1,1,23.9,23.9,13.909,13.909,0,0,1,14,28ZM15.563,3.5a.674.674,0,0,0-.583.339c-1.3,2.29-2.455,4.314-3.473,6.1l-.006.01c-1.285,2.254-2.3,4.035-3.114,5.475l0,.005c-.093.134-.3.471-.18.7.072.138.256.209.545.209h4.083l-1.05,7.4a.673.673,0,0,0,.666.77.664.664,0,0,0,.583-.338l.755-1.321.045-.079C14.9,20.9,16.875,17.434,19.74,12.436a.6.6,0,0,0,.049-.574.579.579,0,0,0-.515-.2H15.179l1.05-7.4a.674.674,0,0,0-.666-.771Z"/>
</svg>
