<svg xmlns="http://www.w3.org/2000/svg" width="19.068" height="19.068" viewBox="0 0 19.068 19.068">
  <g id="manufacturer" transform="translate(0 0)">
    <path id="Path_170" data-name="Path 170" d="M92.647,250.159a2.361,2.361,0,0,0-.043-.279c-.007-.034-.017-.065-.025-.1a1.849,1.849,0,0,0-.058-.19c-.012-.034-.024-.068-.038-.1a2.336,2.336,0,0,0-.117-.25c-.016-.029-.034-.057-.051-.085-.031-.052-.064-.1-.1-.152-.024-.034-.048-.066-.073-.1s-.074-.09-.114-.132c-.023-.025-.046-.052-.07-.077a2.446,2.446,0,0,0-.192-.17c-.026-.021-.054-.041-.082-.061-.051-.038-.1-.074-.157-.107l-.078-.047a2.411,2.411,0,0,0-.519-.219l-.07-.018a2.07,2.07,0,0,0-.218-.045l-.077-.011a2.372,2.372,0,0,0-.291-.019,2.46,2.46,0,0,0-.6.075,2.383,2.383,0,0,0,0,4.617,2.5,2.5,0,0,0,.278.053l.041,0q.12.013.241.015h.071c.056,0,.111,0,.166-.009s.083-.009.126-.015l.046-.007a2.46,2.46,0,0,0,.621-.188l.028-.014c.042-.019.083-.04.125-.062a2.388,2.388,0,0,0,1.2-1.668c.014-.083.025-.165.031-.248,0-.028,0-.056,0-.084a2.327,2.327,0,0,0,0-.236C92.649,250.209,92.649,250.184,92.647,250.159Zm0,0" transform="translate(-84.146 -237.445)"/>
    <path id="Path_171" data-name="Path 171" d="M11.917,167.15a.341.341,0,0,0,.34-.34v-1.362a.341.341,0,0,0-.34-.34h-.375a1.024,1.024,0,0,1-.953-.659c-.036-.095-.075-.189-.117-.281a1.025,1.025,0,0,1,.2-1.143l.267-.267a.341.341,0,0,0,0-.481l-.962-.962a.343.343,0,0,0-.482,0l-.267.266a1.024,1.024,0,0,1-1.143.2q-.138-.063-.281-.117a1.025,1.025,0,0,1-.658-.952v-.375a.341.341,0,0,0-.34-.34H5.448a.341.341,0,0,0-.34.34v.375a1.024,1.024,0,0,1-.659.953c-.095.036-.189.075-.281.117a1.023,1.023,0,0,1-1.143-.2l-.267-.267a.341.341,0,0,0-.481,0l-.962.962a.341.341,0,0,0,0,.482l.266.267a1.025,1.025,0,0,1,.2,1.143q-.063.139-.117.282a1.025,1.025,0,0,1-.952.659H.34a.341.341,0,0,0-.34.34v1.362a.341.341,0,0,0,.34.34H.715a1.024,1.024,0,0,1,.953.659c.036.095.075.189.117.281a1.025,1.025,0,0,1-.2,1.143l-.267.267a.341.341,0,0,0,0,.481l.962.962a.341.341,0,0,0,.482,0l.267-.266a1.025,1.025,0,0,1,1.143-.2q.138.063.281.117a1.025,1.025,0,0,1,.658.952v.375a.341.341,0,0,0,.34.34H6.81a.341.341,0,0,0,.34-.34v-.375a1.024,1.024,0,0,1,.659-.953c.095-.036.189-.075.281-.117a1.023,1.023,0,0,1,1.143.2l.267.267a.341.341,0,0,0,.481,0l.962-.962a.341.341,0,0,0,0-.482l-.266-.267a1.025,1.025,0,0,1-.2-1.143q.063-.138.117-.281a1.025,1.025,0,0,1,.952-.658Zm-2.727-.964c0,.061,0,.123-.01.184s-.014.133-.023.2a3.634,3.634,0,0,1-.513,1.4,1.076,1.076,0,0,1-.183.223,4.038,4.038,0,0,1-.873.63h0c-.058.031-.114.057-.17.083s-.088.042-.133.06-.1.034-.143.052-.093.034-.141.047-.121.034-.181.047c-.034.007-.065.016-.1.022-.085.017-.17.029-.252.039-.011,0-.022,0-.034,0-.1.01-.2.017-.3.017-.055,0-.1-.008-.158-.011-.08,0-.159-.006-.238-.016a3.254,3.254,0,0,1-.357-.068.074.074,0,0,1-.017,0,3.066,3.066,0,0,1,0-5.938,3.12,3.12,0,0,1,.33-.062l.116-.014c.073-.007.146-.011.219-.014.034,0,.068-.006.1-.006a3.041,3.041,0,0,1,1.825.609l.056.042q.064.051.126.1c.034.03.068.061.1.093s.056.052.082.08c.051.052.1.105.146.161.01.012.021.023.031.036a3.019,3.019,0,0,1,.306.446c0,.008.007.016.012.024a3.007,3.007,0,0,1,.15.319c.019.047.034.094.052.141q.036.1.064.207c.015.055.031.11.043.166.018.085.031.17.042.258s.016.162.019.244c0,.045.007.089.007.136,0,.021,0,.039,0,.059Zm0,0" transform="translate(0 -153.19)"/>
    <path id="Path_172" data-name="Path 172" d="M344.184,160.5c.014.034.024.068.037.1C344.208,160.563,344.2,160.529,344.184,160.5Zm0,0" transform="translate(-329.535 -153.665)"/>
    <path id="Path_173" data-name="Path 173" d="M344.22,237.152c-.013.034-.023.068-.037.1C344.2,237.219,344.208,237.185,344.22,237.152Zm0,0" transform="translate(-329.535 -227.058)"/>
    <path id="Path_174" data-name="Path 174" d="M339.8,151.2c.023.044.043.09.065.136C339.844,151.287,339.824,151.242,339.8,151.2Zm0,0" transform="translate(-325.339 -144.764)"/>
    <path id="Path_175" data-name="Path 175" d="M347.631,228.559c-.005.017-.009.034-.014.052C347.623,228.594,347.626,228.576,347.631,228.559Zm0,0" transform="translate(-332.822 -218.831)"/>
    <path id="Path_176" data-name="Path 176" d="M276.559,100.063l.052.014Zm0,0" transform="translate(-264.788 -95.804)"/>
    <path id="Path_177" data-name="Path 177" d="M208.5,102.989c.034-.014.068-.024.1-.037C208.563,102.965,208.529,102.976,208.5,102.989Zm0,0" transform="translate(-199.622 -98.571)"/>
    <path id="Path_178" data-name="Path 178" d="M347.617,170.215c0,.017.008.034.014.052C347.625,170.25,347.622,170.232,347.617,170.215Zm0,0" transform="translate(-332.822 -162.97)"/>
    <path id="Path_179" data-name="Path 179" d="M293.672,106.672c.045.022.091.042.136.065C293.763,106.714,293.717,106.694,293.672,106.672Zm0,0" transform="translate(-281.173 -102.132)"/>
    <path id="Path_180" data-name="Path 180" d="M302.1,111.3c.051.031.1.06.152.092C302.2,111.364,302.149,111.335,302.1,111.3Zm0,0" transform="translate(-289.24 -106.568)"/>
    <path id="Path_181" data-name="Path 181" d="M310.7,117.168c.045.034.092.066.136.1C310.795,117.234,310.748,117.2,310.7,117.168Zm0,0" transform="translate(-297.479 -112.181)"/>
    <path id="Path_182" data-name="Path 182" d="M328.441,134.1c.034.044.068.091.1.136C328.508,134.189,328.477,134.142,328.441,134.1Zm0,0" transform="translate(-314.462 -128.391)"/>
    <path id="Path_183" data-name="Path 183" d="M285.152,102.953c.034.012.068.023.1.037C285.219,102.976,285.185,102.965,285.152,102.953Zm0,0" transform="translate(-273.016 -98.571)"/>
    <path id="Path_184" data-name="Path 184" d="M334.527,142.328c.034.049.061.1.092.152C334.59,142.429,334.56,142.378,334.527,142.328Zm0,0" transform="translate(-320.289 -136.27)"/>
    <path id="Path_185" data-name="Path 185" d="M218.215,100.076l.052-.014Zm0,0" transform="translate(-208.927 -95.804)"/>
    <path id="Path_186" data-name="Path 186" d="M182.1,117.263c.044-.036.091-.068.136-.1C182.189,117.2,182.142,117.227,182.1,117.263Zm0,0" transform="translate(-174.348 -112.174)"/>
    <path id="Path_187" data-name="Path 187" d="M328.528,262.711c-.034.045-.066.092-.1.136C328.462,262.8,328.494,262.756,328.528,262.711Zm0,0" transform="translate(-314.447 -251.53)"/>
    <path id="Path_188" data-name="Path 188" d="M190.328,111.4c.049-.034.1-.061.151-.092C190.429,111.342,190.378,111.372,190.328,111.4Zm0,0" transform="translate(-182.227 -106.575)"/>
    <path id="Path_189" data-name="Path 189" d="M199.2,106.737c.044-.023.09-.043.136-.065C199.287,106.694,199.242,106.713,199.2,106.737Zm0,0" transform="translate(-190.721 -102.132)"/>
    <path id="Path_190" data-name="Path 190" d="M339.866,245.672c-.022.045-.042.091-.065.136C339.824,245.763,339.843,245.717,339.866,245.672Zm0,0" transform="translate(-325.338 -235.216)"/>
    <path id="Path_191" data-name="Path 191" d="M334.62,254.113c-.031.05-.059.1-.092.151C334.561,254.215,334.591,254.163,334.62,254.113Zm0,0" transform="translate(-320.29 -243.298)"/>
    <path id="Path_192" data-name="Path 192" d="M102.271,7.15H101.2a1.013,1.013,0,0,1-.963-.688,6.427,6.427,0,0,0-.347-.835,1.014,1.014,0,0,1,.192-1.17l.759-.761a.34.34,0,0,0,0-.481L99.4,1.771a.34.34,0,0,0-.481,0l-.761.759a1.015,1.015,0,0,1-1.17.192,6.4,6.4,0,0,0-.835-.347,1.013,1.013,0,0,1-.688-.964V.34a.341.341,0,0,0-.34-.34H93.078a.341.341,0,0,0-.34.34V1.411a1.013,1.013,0,0,1-.688.963,6.428,6.428,0,0,0-.835.347,1.013,1.013,0,0,1-1.17-.192l-.761-.759a.34.34,0,0,0-.481,0L87.357,3.215a.34.34,0,0,0,0,.481l2.429,2.432h.586a4.433,4.433,0,0,1,.6-.749,4.349,4.349,0,0,1,.325-.294c.044-.036.091-.068.136-.1.071-.054.141-.108.214-.158.05-.034.1-.061.151-.092.074-.045.147-.092.224-.132.044-.024.09-.043.136-.065.086-.043.173-.085.263-.122.034-.014.068-.024.1-.037.1-.039.207-.078.314-.109l.052-.014a4.358,4.358,0,0,1,2.431,0l.052.014c.107.032.21.07.314.109.034.013.068.023.1.037.09.037.176.079.263.122.045.022.091.041.136.065.077.041.15.087.224.132.051.031.1.059.152.092.074.049.144.1.214.157.045.034.092.066.136.1a4.387,4.387,0,0,1,.619.619c.036.044.068.091.1.136.054.07.108.14.157.214.034.05.061.1.092.152.045.074.091.147.132.224.024.044.043.09.065.136.043.086.085.173.122.263.014.034.024.068.037.1.039.1.078.207.109.314.005.017.008.034.014.052a4.358,4.358,0,0,1,0,2.431c-.005.017-.008.034-.014.052-.032.107-.068.21-.109.314-.013.034-.023.068-.037.1-.037.089-.079.176-.122.263-.022.045-.041.091-.065.136-.041.077-.087.15-.132.224-.031.05-.059.1-.092.151-.049.074-.1.144-.158.214-.034.045-.065.092-.1.136a4.352,4.352,0,0,1-.294.325,4.433,4.433,0,0,1-.749.6c0,.006,0,.012,0,.018v.567l2.43,2.429a.34.34,0,0,0,.481,0l1.445-1.445a.34.34,0,0,0,0-.481l-.759-.761a1.014,1.014,0,0,1-.192-1.17,6.4,6.4,0,0,0,.347-.835,1.013,1.013,0,0,1,.964-.688h1.071a.341.341,0,0,0,.34-.34V7.491a.341.341,0,0,0-.34-.34Zm0,0" transform="translate(-83.544 0)"/>
    <path id="Path_193" data-name="Path 193" d="M287.5,103.816c.089.036.176.079.263.122C287.68,103.895,287.593,103.853,287.5,103.816Zm0,0" transform="translate(-275.267 -99.398)"/>
    <path id="Path_194" data-name="Path 194" d="M296.84,108.2c.076.041.15.087.224.132C296.99,108.286,296.917,108.24,296.84,108.2Zm0,0" transform="translate(-284.206 -103.594)"/>
    <path id="Path_195" data-name="Path 195" d="M210.848,100.492c.1-.04.208-.078.314-.109C211.055,100.414,210.951,100.453,210.848,100.492Zm0,0" transform="translate(-201.874 -96.11)"/>
    <path id="Path_196" data-name="Path 196" d="M277.785,100.383c.106.031.21.07.314.109C278,100.453,277.892,100.415,277.785,100.383Zm0,0" transform="translate(-265.962 -96.111)"/>
    <path id="Path_197" data-name="Path 197" d="M193.887,108.332c.074-.045.148-.092.224-.132C194.034,108.241,193.961,108.287,193.887,108.332Zm0,0" transform="translate(-185.635 -103.595)"/>
    <path id="Path_198" data-name="Path 198" d="M185.289,113.63c.071-.054.141-.109.214-.158C185.43,113.522,185.36,113.577,185.289,113.63Zm0,0" transform="translate(-177.403 -108.643)"/>
    <path id="Path_199" data-name="Path 199" d="M202.328,103.938c.087-.042.174-.085.263-.122C202.5,103.853,202.414,103.9,202.328,103.938Zm0,0" transform="translate(-193.717 -99.398)"/>
    <path id="Path_200" data-name="Path 200" d="M174.465,119.853c.1-.1.213-.2.325-.294A4.313,4.313,0,0,0,174.465,119.853Zm0,0" transform="translate(-167.04 -114.47)"/>
    <path id="Path_201" data-name="Path 201" d="M330.981,257.672c-.049.073-.1.144-.158.214C330.878,257.816,330.932,257.746,330.981,257.672Zm0,0" transform="translate(-316.743 -246.705)"/>
    <path id="Path_202" data-name="Path 202" d="M341.45,239.5c-.036.089-.079.176-.122.263C341.371,239.68,341.413,239.593,341.45,239.5Zm0,0" transform="translate(-326.801 -229.31)"/>
    <path id="Path_203" data-name="Path 203" d="M336.82,248.8c-.041.076-.087.15-.132.224C336.733,248.953,336.779,248.88,336.82,248.8Zm0,0" transform="translate(-322.358 -238.212)"/>
    <path id="Path_204" data-name="Path 204" d="M305.672,113.473c.073.049.143.1.214.157C305.816,113.577,305.746,113.522,305.672,113.473Zm0,0" transform="translate(-292.662 -108.643)"/>
    <path id="Path_205" data-name="Path 205" d="M347.938,173.873a4.358,4.358,0,0,0,0-2.431A4.46,4.46,0,0,1,347.938,173.873Zm0,0" transform="translate(-333.129 -164.145)"/>
    <path id="Path_206" data-name="Path 206" d="M221.873,96.172a4.358,4.358,0,0,0-2.431,0A4.46,4.46,0,0,1,221.873,96.172Zm0,0" transform="translate(-210.102 -91.914)"/>
    <path id="Path_207" data-name="Path 207" d="M321.829,265.9c-.092.112-.189.221-.294.325A4.332,4.332,0,0,0,321.829,265.9Zm0,0" transform="translate(-307.85 -254.585)"/>
    <path id="Path_208" data-name="Path 208" d="M321.535,126.465c.1.1.2.213.294.325A4.313,4.313,0,0,0,321.535,126.465Zm0,0" transform="translate(-307.85 -121.083)"/>
    <path id="Path_209" data-name="Path 209" d="M330.832,137.3c.054.071.108.141.157.214C330.94,137.437,330.886,137.367,330.832,137.3Zm0,0" transform="translate(-316.751 -131.454)"/>
    <path id="Path_210" data-name="Path 210" d="M313.9,119.559c.112.092.221.189.325.294A4.325,4.325,0,0,0,313.9,119.559Zm0,0" transform="translate(-300.542 -114.47)"/>
    <path id="Path_211" data-name="Path 211" d="M345.047,162.848c.04.1.078.208.109.314C345.125,163.055,345.087,162.951,345.047,162.848Zm0,0" transform="translate(-330.361 -155.917)"/>
    <path id="Path_212" data-name="Path 212" d="M336.7,145.9c.045.074.092.147.132.224C336.786,146.049,336.74,145.976,336.7,145.9Zm0,0" transform="translate(-322.365 -139.692)"/>
    <path id="Path_213" data-name="Path 213" d="M345.156,229.785c-.031.106-.068.21-.109.314C345.086,230,345.124,229.892,345.156,229.785Zm0,0" transform="translate(-330.361 -220.005)"/>
    <path id="Path_214" data-name="Path 214" d="M341.328,154.328c.042.087.085.174.122.263C341.413,154.5,341.371,154.414,341.328,154.328Zm0,0" transform="translate(-326.801 -147.76)"/>
  </g>
</svg>
