<svg xmlns="http://www.w3.org/2000/svg" width="24.304" height="19.956" viewBox="0 0 24.304 19.956">
  <g id="gear-shift" transform="translate(-30.211 -59.375)">
    <path id="Path_31" data-name="Path 31" d="M393.392,57.275a1.941,1.941,0,1,0,1.942,1.941A1.941,1.941,0,0,0,393.392,57.275Z" transform="translate(-340.82 2.1)" fill="#a6a6a6"/>
    <path id="Path_33" data-name="Path 33" d="M393.392,57.275a1.941,1.941,0,1,0,1.942,1.941A1.941,1.941,0,0,0,393.392,57.275Z" transform="translate(-351.03 2.146)" fill="#a6a6a6"/>
    <path id="Path_34" data-name="Path 34" d="M393.392,57.275a1.941,1.941,0,1,0,1.942,1.941A1.941,1.941,0,0,0,393.392,57.275Z" transform="translate(-361.241 2.146)" fill="#a6a6a6"/>
    <path id="Path_35" data-name="Path 35" d="M393.392,57.275a1.941,1.941,0,1,0,1.942,1.941A1.941,1.941,0,0,0,393.392,57.275Z" transform="translate(-361.241 18.173)" fill="#a6a6a6"/>
    <path id="Path_36" data-name="Path 36" d="M393.392,57.275a1.941,1.941,0,1,0,1.942,1.941A1.941,1.941,0,0,0,393.392,57.275Z" transform="translate(-351.03 18.173)" fill="#a6a6a6"/>
    <path id="Path_32" data-name="Path 32" d="M88.5,161.267H79.044V156h-.793v5.267H68.793V156H68v11.328h.793V162.06h9.458v5.267h.793V162.06H88.9a.4.4,0,0,0,.4-.4V156H88.5Z" transform="translate(-36.285 -92.288)" fill="#a6a6a6"/>
  </g>
</svg>
