<svg xmlns="http://www.w3.org/2000/svg" width="28.169" height="17.504" viewBox="0 0 28.169 17.504">
  <g id="Glass" transform="translate(-367.55 -287.099)">
    <path id="windshield" d="M28.072,111.311l-1.03-3.66-.734-2.61q-.6-2.14-1.206-4.282a2.509,2.509,0,0,0-2.427-1.854H5.492a2.508,2.508,0,0,0-2.428,1.856l-1.92,6.828L.1,111.312a2.566,2.566,0,0,0,1.731,3.159,43.775,43.775,0,0,0,12.254,1.939A43.82,43.82,0,0,0,26.34,114.47,2.565,2.565,0,0,0,28.072,111.311Zm-2.187,1.552a106.152,106.152,0,0,1-11.8,1.874,101.17,101.17,0,0,1-11.8-1.874.888.888,0,0,1-.6-1.093l1.048-3.723,1.92-6.828c.11-.39,18.752-.39,18.862,0q.6,2.141,1.205,4.28l.734,2.61,1.03,3.66A.888.888,0,0,1,25.885,112.863Z" transform="translate(367.551 188.194)" fill="#a6a6a6"/>
    <line id="Line_5" data-name="Line 5" x2="6.142" y2="0.063" transform="translate(385.8 291.028) rotate(45)" fill="none" stroke="#707070" stroke-linecap="round" stroke-width="1"/>
    <line id="Line_6" data-name="Line 6" x2="1.982" y2="1.973" transform="translate(387.88 290.479)" fill="none" stroke="#707070" stroke-linecap="round" stroke-width="1"/>
  </g>
</svg>
