<svg xmlns="http://www.w3.org/2000/svg" width="14.492" height="23.189" viewBox="0 0 14.492 23.189">
  <g id="Kafi" transform="translate(-374.389 -181.337)">
    <path id="Path_74" data-name="Path 74" d="M38.767,35.352c-.774-.026-1.55-.01-2.324-.017a4.852,4.852,0,0,1-2.42-.625,2.507,2.507,0,0,1-1.147-1.345c-.38-1.055-.6-14.246-.581-15.335a23.235,23.235,0,0,1,.933-4.979,1.487,1.487,0,0,1,1.112-.756,6.548,6.548,0,0,1,1.083-.115q2.217.023,4.433.091a2.044,2.044,0,0,1,1.282.509q1.362,1.17,2.7,2.368c.57.513,1.1,1.072,1.672,1.579a3.472,3.472,0,0,1,1.2,2.658c.02,1.17,0,2.34.009,3.511,0,.551.035,1.1.028,1.653-.007.7.107,7.065-.037,8.224a5.364,5.364,0,0,1-.369,1.464,1.619,1.619,0,0,1-1.26,1.037C44.6,35.361,39.892,35.391,38.767,35.352Z" transform="translate(342.096 169.157)" fill="#a6a6a6"/>
    <rect id="Rectangle_16" data-name="Rectangle 16" width="10.001" height="1.713" rx="0.857" transform="translate(376.634 187.394)" fill="#767676"/>
    <rect id="Rectangle_17" data-name="Rectangle 17" width="4.38" height="1.713" rx="0.857" transform="translate(377.035 193.177)" fill="#767676"/>
    <rect id="Rectangle_18" data-name="Rectangle 18" width="4.38" height="1.713" rx="0.857" transform="translate(377.035 196.484)" fill="#767676"/>
    <rect id="Rectangle_19" data-name="Rectangle 19" width="4.38" height="1.713" rx="0.857" transform="translate(377.035 199.792)" fill="#767676"/>
  </g>
</svg>
