<svg id="lens" xmlns="http://www.w3.org/2000/svg" width="27.139" height="27.139" viewBox="0 0 27.139 27.139">
  <path id="Path_42" data-name="Path 42" d="M13.57,0a13.57,13.57,0,1,0,13.57,13.57A13.57,13.57,0,0,0,13.57,0Zm0,26.264A12.694,12.694,0,1,1,26.264,13.57,12.694,12.694,0,0,1,13.57,26.264Zm0,0" fill="#a6a6a6"/>
  <path id="Path_43" data-name="Path 43" d="M43.819,32A11.819,11.819,0,1,0,55.638,43.819,11.819,11.819,0,0,0,43.819,32Zm0,22.762A10.943,10.943,0,1,1,54.762,43.819,10.943,10.943,0,0,1,43.819,54.762Zm0,0" transform="translate(-30.249 -30.249)" fill="#a6a6a6"/>
  <path id="Path_44" data-name="Path 44" d="M111.879,104a7.879,7.879,0,1,0,7.879,7.879A7.879,7.879,0,0,0,111.879,104Zm0,14.883a7,7,0,1,1,7-7A7,7,0,0,1,111.879,118.883Zm0,0" transform="translate(-98.309 -98.309)" fill="#a6a6a6"/>
  <path id="Path_45" data-name="Path 45" d="M210.173,136a6.132,6.132,0,0,0-1.886.3.438.438,0,0,0,.135.855.458.458,0,0,0,.135-.021,5.244,5.244,0,0,1,1.616-.253.438.438,0,0,0,0-.875Zm0,0" transform="translate(-196.604 -128.558)" fill="#a6a6a6"/>
  <path id="Path_46" data-name="Path 46" d="M138.861,151.972A6.1,6.1,0,0,0,136,157.158a.438.438,0,1,0,.875,0,5.231,5.231,0,0,1,2.451-4.445.438.438,0,1,0-.467-.74Zm0,0" transform="translate(-128.558 -143.588)" fill="#a6a6a6"/>
</svg>
